<svg xmlns="http://www.w3.org/2000/svg" width="450" height="560" viewBox="0 0 450 560">
  <g fill="none" transform="translate(-.178 .22)">
    <path fill="#5A6175" fill-opacity=".1" d="M237.9,518.7 L15,531.3 C7.2,531.3 0.9,537.6 0.9,545.4 C0.9,553.2 7.2,559.5 15,559.5 L344.9,558.9 C352.7,558.9 360.6,554.6 360.6,540.4 C360.6,526.2 349.9,519.5 342.1,519.5 L237.9,518.7 Z"/>
    <polygon fill="#FACA78" points="355.4 333 192 333 166.2 284.4 127.4 175.5 355.4 175.5"/>
    <path fill="#F6914E" d="M286.7,522.8 C286.5,513.9 302.6,249.5 302.4,229 C294.8,228.5 268.9,228.2 261.8,226.2 C260.9,225.9 260,225.7 259.1,225.4 C257.3,224.8 255.5,224.2 253.7,223.5 C250.9,239.4 246.7,257.9 245.4,273 C240.9,269.7 234.1,264.1 227.1,258 C211.5,244.7 194.2,228.9 194.2,228.9 C193.9,228.6 193.5,228.3 193.1,228.1 C192.1,227.5 190.9,227.2 189.6,227.1 C189.4,227.2 189.3,227.4 189.1,227.5 C186.1,229.9 182.7,232 179,233.7 C179.1,234.3 179.4,234.9 180,235.4 L222.6,283.9 L229.5,291.7 L238.7,302.2 C238.5,304.9 236.7,318.3 234.1,337.2 C233.5,341.8 232.8,346.7 232.1,351.9 C227.8,382.6 222.2,422.3 217.5,456.1 C216.5,463 215.6,469.7 214.8,476 C214.4,479.3 212.9,504.9 212,520.2 C211.6,526.3 216.6,521.2 223.2,521.6 C239.3,522.6 286.8,526.5 286.7,522.8"/>
    <path fill="#FFDEA6" d="M449,191.5 C448.5,183.7 446,174.8 442.2,166.3 C439.9,161.3 437.2,156.5 434.1,152.2 C432.6,150.1 431,148 429.3,146.2 C424.4,140.8 419,136.7 413.5,134.8 C421.2,126.3 422.6,114.3 419.2,103.5 C418,99.6 416.2,95.9 413.8,92.5 C412.5,90.6 411,88.8 409.3,87.1 C409.1,86.9 408.8,86.6 408.6,86.4 C395.3,73.7 375.5,71.8 360.2,80 C359.3,77 358.4,74.3 357.2,71.5 C353.5,62.8 348,54.8 339.5,44.4 C330,32.8 318.9,23.8 306.9,17 C305.9,16.4 304.9,15.9 303.9,15.3 C302.2,14.4 300.5,13.6 298.8,12.8 C294.7,10.9 290.4,9.2 286.1,7.7 C284.4,7.1 282.7,6.6 281,6.1 C275.6,4.5 270.1,3.3 264.5,2.4 C248,-0.2 231,0.1 214.8,2.9 C190.7,7.1 168.2,16.7 151.1,30.2 C116.1,57.8 100.2,100.4 95.2,131.4 C93,145 92.5,157.3 93.2,168.2 C93.3,170 93.5,171.8 93.6,173.6 C94.9,186.3 97.8,197.1 101.2,205.9 C100.3,207.1 100,208.6 100.2,210.1 C94.3,214.7 89.4,220.4 85.6,226.8 C84.7,228.4 83.8,230.1 83,231.8 C77.8,243.1 76.1,255.9 79.1,268 C80.1,272.2 81.7,276.3 83.9,280.2 C97.5,304.4 124.3,321 152.3,324.8 L152.3,324.8 C163.6,326.3 175.2,325.7 186.1,322.8 C192.8,334.1 201.8,343.1 211.7,350.2 C211.7,350.2 211.7,350.2 211.7,350.1 C217.9,354.6 224.5,358.4 231.1,361.5 C233.9,341.3 235.9,327.1 236.1,324.2 L227,313.1 C224.2,313.2 221.4,313.1 218.7,312.9 L218.7,313 C184.4,310 163.1,281 162.6,256.4 C165.5,255.9 168.4,255.3 171,254.4 C173.1,253.7 175.1,252.9 177.1,251.9 C180.7,250.1 184.1,247.9 187.1,245.3 L187.1,245.3 L187.1,245.3 C187.1,245.3 187.2,245.3 187.2,245.2 L187.2,245.2 C187.3,245.1 187.5,244.9 187.6,244.8 L187.7,244.8 C189.2,243.5 190.6,242.1 191.9,240.6 C198.2,233.5 202.3,224.7 203.4,215.2 C205.7,215.9 208,216.3 210.5,216.5 C212.3,216.6 214.1,216.7 215.8,216.6 C217.6,216.5 219.3,216.4 221,216.1 C223,215.8 225.2,215.3 227.4,214.7 C228.2,219.1 230.4,223.3 233.3,226.9 C233.9,227.7 234.6,228.4 235.3,229.1 C240,234 245.8,237.6 252,240.2 C253.8,240.9 255.6,241.6 257.4,242.2 C258.3,242.5 259.2,242.8 260.1,243 C267.2,245.1 274.8,246.6 282.4,247 C288.6,247.3 294.8,247 300.8,245.6 C296.1,261.8 309.8,275.6 323.4,286.9 C323.5,285.7 323.6,284.4 323.7,283.1 C323.6,284.4 323.5,285.7 323.4,286.8 C323.4,287.2 323.4,287.5 323.3,287.8 C322.6,302.1 312.7,315.8 298.3,321.6 L295.5,373.7 C308.7,372.9 320,370.1 331.1,364.4 C335.7,362 340,359.1 343.7,355.7 C348.8,351 352.8,345.3 355.5,338.4 C355.5,338.3 355.6,338.2 355.6,338.1 C359.1,339.2 362.7,340 366.3,340.4 C380.8,342.3 394.8,338.6 402.9,325.8 C411.1,312.9 408.1,299.4 399.8,289.6 C401.4,288.8 403,288 404.5,287.1 C406.8,285.8 409,284.3 411.1,282.7 C413.9,280.6 416.6,278.4 419.1,275.8 L420.3,267.5 C420.3,267.5 420.3,267.5 420.3,267.6 L419.1,275.9 C421.3,273.7 423.3,271.4 425.3,268.9 C425.4,268.8 425.4,268.7 425.5,268.6 C440.2,249.4 450.9,222.1 449,191.5"/>
    <path fill="#73B5EC" d="M275,430.9 C263,431.4 263,450 275,449.6 C280.4,449.4 286.4,450.7 289.8,453.1 L301.3,437.6 C293.8,432.4 284.2,430.5 275,430.9"/>
    <path fill="#4592D1" d="M310,446.5 C307.7,442.8 304.7,439.8 301.2,437.5 L289.7,453 C293.5,455.7 294,459.6 286.5,464.2 C281.1,467.5 269,466.5 262.6,467 C247.4,468.1 232.1,468 216.9,467.1 C204.9,466.4 204.9,485 216.9,485.8 C236,486.9 255,486.7 274,484.7 C285.2,483.5 298.6,483 307.2,474.7 C315.2,467.1 315.7,455.6 310,446.5"/>
    <polygon fill="#73B5EC" points="22.8 532.8 102.4 532.8 102.4 507.8 22.8 507.8"/>
    <path fill="#4592D1" d="M10.8 495.4L10.8 529.1C10.8 531.1 12.4 532.8 14.5 532.8L22.8 532.8 22.8 495.4C22.8 492.1 20.1 489.4 16.8 489.4 13.5 489.4 10.8 492.1 10.8 495.4M211.3 532.8L91 532.8C86.7 532.8 84 528 86.3 524.4L118.3 473.2C120.6 469.6 124.5 467.4 128.8 467.4L249.4 467.4C253.7 467.4 256.3 472.1 254 475.8L222 526.9C219.8 530.5 215.7 532.8 211.3 532.8M158.6 326.6L193.5 428.2 223.6 327.7C224.7 325.1 222.8 322.2 219.9 322.2L162.4 321.3C159.6 321.2 157.6 324 158.6 326.6"/>
    <path fill="#73B5EC" d="M240,469.4 L141.6,469.4 C123.6,469.4 106.8,461.1 96.6,447.2 L96.6,447.2 C84.2,430.2 83.7,408 95.4,390.6 L96.8,388.5 C106.8,373.6 124.2,364.6 142.9,364.6 L238.5,364.6 C256.4,364.6 273.2,372.9 283.4,386.7 L284.9,388.7 C298.3,406.9 297.8,431.3 283.6,449 L283.5,449.1 C273.2,461.8 257.1,469.4 240,469.4"/>
    <path fill="#4B5161" d="M135.8 435.1C124.4 435.1 115.1 425.8 115.1 414.4L115.1 412C115.1 410.7 116.1 409.7 117.4 409.7 118.7 409.7 119.7 410.7 119.7 412L119.7 414.3C119.7 423.2 126.9 430.4 135.8 430.4 144.7 430.4 151.9 423.2 151.9 414.3L151.9 412C151.9 410.7 152.9 409.7 154.2 409.7 155.5 409.7 156.5 410.7 156.5 412L156.5 414.3C156.5 425.8 147.2 435.1 135.8 435.1M185 435.1C173.6 435.1 164.3 425.8 164.3 414.4L164.3 412C164.3 410.7 165.3 409.7 166.6 409.7 167.9 409.7 168.9 410.7 168.9 412L168.9 414.3C168.9 423.2 176.1 430.4 185 430.4 193.9 430.4 201.1 423.2 201.1 414.3L201.1 412C201.1 410.7 202.1 409.7 203.4 409.7 204.7 409.7 205.7 410.7 205.7 412L205.7 414.3C205.7 425.8 196.4 435.1 185 435.1M160.3 447C153.8 447 148.7 443.5 148.7 438.9L148.7 438.2C148.7 436.9 149.7 435.9 151 435.9 152.3 435.9 153.3 436.9 153.3 438.2L153.3 438.9C153.3 440.5 156.3 442.4 160.3 442.4 164.2 442.4 167.3 440.5 167.3 438.9L167.3 438.2C167.3 436.9 168.3 435.9 169.6 435.9 170.9 435.9 171.9 436.9 171.9 438.2L171.9 438.9C171.8 443.4 166.7 447 160.3 447"/>
    <g fill="#FCF6EC" transform="translate(96 480)">
      <path d="M44.6 11.9C49.2 9 53.2 6.5 61.7 6.5 70.2 6.5 74.1 9 78.8 11.9 83.6 14.9 88.9 18.3 99.2 18.3 109.5 18.3 114.9 14.9 119.6 11.9 124.2 9 128.2 6.5 136.7 6.5 142.6 6.5 146.4 7.7 149.6 9.5L152.9 4.2C149 2.1 144.1.3 136.6.3 126.3.3 120.9 3.7 116.2 6.7 111.6 9.6 107.6 12.1 99.1 12.1 90.6 12.1 86.7 9.6 82 6.7 77.3 3.7 71.9.3 61.6.3 51.3.3 45.9 3.7 41.2 6.7 36.6 9.6 32.6 12.1 24.1 12.1 18.7 12.1 15.1 11.1 12.1 9.6L8.8 14.9C12.6 16.8 17.3 18.4 24.2 18.4 34.4 18.3 39.8 14.9 44.6 11.9zM138.6 18.9C128.3 18.9 122.9 22.3 118.2 25.3 113.6 28.2 109.6 30.7 101.1 30.7 92.6 30.7 88.7 28.2 84 25.3 79.3 22.3 73.9 18.9 63.6 18.9 53.3 18.9 47.9 22.3 43.2 25.3 38.6 28.2 34.6 30.7 26.1 30.7 17.6 30.7 13.7 28.2 9 25.3 7.4 24.3 5.8 23.3 3.9 22.3L.6 27.6C2.4 28.5 4 29.5 5.7 30.5 10.4 33.5 15.8 36.9 26.1 36.9 36.4 36.9 41.8 33.5 46.5 30.5 51.1 27.6 55.1 25.1 63.6 25.1 72.1 25.1 76 27.6 80.7 30.5 85.5 33.5 90.8 36.9 101.1 36.9 111.4 36.9 116.8 33.5 121.5 30.5 126.1 27.6 130.1 25.1 138.6 25.1L139.6 25.1 143.4 19.1C141.9 19 140.4 18.9 138.6 18.9z"/>
    </g>
  </g>
</svg>
